<?xml version="1.0" standalone="no"?>
<!DOCTYPE svg PUBLIC "-//W3C//DTD SVG 20010904//EN"
 "http://www.w3.org/TR/2001/REC-SVG-20010904/DTD/svg10.dtd">
<svg version="1.0" xmlns="http://www.w3.org/2000/svg"
 width="256.000000pt" height="256.000000pt" viewBox="0 0 256.000000 256.000000"
 preserveAspectRatio="xMidYMid meet">
<metadata>
Created by potrace 1.11, written by Peter Selinger 2001-2013
</metadata>
<g transform="translate(0.000000,256.000000) scale(0.100000,-0.100000)"
fill="#000000" stroke="none">
<path d="M0 1280 l0 -1280 1280 0 1280 0 0 1280 0 1280 -1280 0 -1280 0 0
-1280z m1720 1031 c0 -27 -2 -28 -61 -35 -120 -12 -208 -88 -225 -192 l-6 -41
108 -11 c185 -21 318 -64 437 -141 325 -214 431 -652 236 -983 -94 -160 -253
-286 -439 -347 -71 -24 -230 -51 -299 -51 l-44 0 7 -42 c17 -106 104 -182 225
-194 59 -7 61 -8 61 -35 l0 -29 -441 0 -440 0 3 28 c3 25 7 28 62 34 110 14
189 72 215 157 22 76 21 77 -73 85 -376 28 -651 225 -757 541 -21 62 -24 87
-23 230 0 147 2 166 26 233 36 100 82 174 153 247 142 146 335 233 588 265
108 14 108 14 87 91 -24 84 -107 143 -221 157 -50 6 -54 9 -57 35 l-3 27 440
0 441 0 0 -29z"/>
<path d="M993 1930 c-291 -76 -406 -266 -407 -670 -1 -279 71 -456 226 -564
65 -44 175 -83 263 -92 l65 -7 0 677 0 676 -37 -1 c-21 0 -70 -9 -110 -19z"/>
<path d="M1430 1275 l0 -675 33 0 c55 0 184 37 247 71 76 40 151 113 183 175
111 220 116 640 10 837 -41 75 -123 159 -192 196 -64 34 -193 71 -248 71 l-33
0 0 -675z"/>
</g>
</svg>
